<svg width="143" height="36" viewBox="0 0 143 36" fill="none" xmlns="http://www.w3.org/2000/svg">
<path fill-rule="evenodd" clip-rule="evenodd" d="M39.2066 17.5C39.2066 25.769 32.6772 32.4722 24.6225 32.4722C16.5679 32.4722 10.0384 25.769 10.0384 17.5C10.0384 9.23102 16.5679 2.52777 24.6225 2.52777C32.6772 2.52777 39.2066 9.23102 39.2066 17.5ZM41.6689 17.5C41.6689 27.165 34.037 35 24.6225 35C15.2081 35 7.57617 27.165 7.57617 17.5C7.57617 7.83502 15.2081 0 24.6225 0C34.037 0 41.6689 7.83502 41.6689 17.5ZM34.0275 9.65522C34.0275 10.655 33.238 11.4655 32.2641 11.4655C31.2902 11.4655 30.5007 10.655 30.5007 9.65522C30.5007 8.65538 31.2902 7.84488 32.2641 7.84488C33.238 7.84488 34.0275 8.65538 34.0275 9.65522ZM19.4949 18.9105C20.2537 21.8177 23.1645 23.543 25.9964 22.764C28.8282 21.985 30.5088 18.9967 29.75 16.0895C28.9912 13.1823 26.0803 11.457 23.2485 12.236C20.4166 13.015 18.736 16.0033 19.4949 18.9105ZM17.1165 19.5648C18.2272 23.8204 22.4882 26.346 26.6335 25.2057C30.779 24.0653 33.239 19.691 32.1283 15.4352C31.0175 11.1796 26.7566 8.65398 22.6112 9.7944C18.4658 10.9347 16.0057 15.309 17.1165 19.5648Z" fill="url(#paint0_linear_203_17)"/>
<path d="M50.554 31V9.90909H57.6804C59.335 9.90909 60.6875 10.2077 61.7379 10.805C62.7952 11.3955 63.5779 12.1953 64.0859 13.2045C64.594 14.2138 64.848 15.3397 64.848 16.5824C64.848 17.825 64.594 18.9544 64.0859 19.9705C63.5848 20.9866 62.8089 21.7968 61.7585 22.4009C60.7081 22.9982 59.3625 23.2969 57.7216 23.2969H52.6136V21.0312H57.6392C58.772 21.0312 59.6817 20.8356 60.3683 20.4442C61.0548 20.0529 61.5526 19.5243 61.8615 18.8583C62.1773 18.1855 62.3352 17.4268 62.3352 16.5824C62.3352 15.7379 62.1773 14.9827 61.8615 14.3168C61.5526 13.6508 61.0514 13.129 60.358 12.7514C59.6645 12.367 58.7446 12.1747 57.598 12.1747H53.108V31H50.554ZM68.6326 31V15.1818H71.063V31H68.6326ZM69.8684 12.5455C69.3947 12.5455 68.9862 12.3841 68.6429 12.0614C68.3065 11.7388 68.1383 11.3509 68.1383 10.8977C68.1383 10.4446 68.3065 10.0567 68.6429 9.73402C68.9862 9.41134 69.3947 9.25 69.8684 9.25C70.3422 9.25 70.7472 9.41134 71.0836 9.73402C71.4269 10.0567 71.5985 10.4446 71.5985 10.8977C71.5985 11.3509 71.4269 11.7388 71.0836 12.0614C70.7472 12.3841 70.3422 12.5455 69.8684 12.5455ZM81.9406 31.3295C80.4577 31.3295 79.1807 30.9794 78.1096 30.2791C77.0386 29.5788 76.2148 28.6142 75.6381 27.3853C75.0613 26.1564 74.773 24.7524 74.773 23.1733C74.773 21.5668 75.0682 20.149 75.6586 18.9201C76.2559 17.6843 77.0867 16.7197 78.1508 16.0263C79.2219 15.326 80.4714 14.9759 81.8994 14.9759C83.0116 14.9759 84.014 15.1818 84.9065 15.5938C85.799 16.0057 86.5302 16.5824 87.1001 17.3239C87.6699 18.0653 88.0235 18.9304 88.1608 19.919H85.7304C85.545 19.1982 85.1331 18.5597 84.4946 18.0036C83.863 17.4406 83.0116 17.1591 81.9406 17.1591C80.9932 17.1591 80.1624 17.4062 79.4484 17.9006C78.7413 18.388 78.1886 19.078 77.7904 19.9705C77.3991 20.8562 77.2034 21.8963 77.2034 23.0909C77.2034 24.313 77.3956 25.3771 77.7801 26.2834C78.1714 27.1896 78.7207 27.8933 79.4278 28.3945C80.1418 28.8957 80.9794 29.1463 81.9406 29.1463C82.5722 29.1463 83.1455 29.0365 83.6604 28.8168C84.1753 28.5971 84.6113 28.2812 84.9683 27.8693C85.3253 27.4574 85.5793 26.9631 85.7304 26.3864H88.1608C88.0235 27.3201 87.6836 28.1611 87.1412 28.9094C86.6057 29.6509 85.8952 30.2414 85.0095 30.6808C84.1307 31.1133 83.1077 31.3295 81.9406 31.3295ZM91.7137 31V15.1818H94.1441V31H91.7137ZM92.9495 12.5455C92.4758 12.5455 92.0673 12.3841 91.724 12.0614C91.3876 11.7388 91.2194 11.3509 91.2194 10.8977C91.2194 10.4446 91.3876 10.0567 91.724 9.73402C92.0673 9.41134 92.4758 9.25 92.9495 9.25C93.4232 9.25 93.8283 9.41134 94.1647 9.73402C94.508 10.0567 94.6796 10.4446 94.6796 10.8977C94.6796 11.3509 94.508 11.7388 94.1647 12.0614C93.8283 12.3841 93.4232 12.5455 92.9495 12.5455ZM109.8 18.7244L107.617 19.3423C107.48 18.9785 107.277 18.6249 107.009 18.2816C106.748 17.9315 106.391 17.6431 105.938 17.4165C105.485 17.19 104.905 17.0767 104.198 17.0767C103.23 17.0767 102.423 17.2998 101.778 17.7461C101.139 18.1855 100.82 18.745 100.82 19.4247C100.82 20.0289 101.04 20.506 101.479 20.8562C101.918 21.2063 102.605 21.4981 103.539 21.7315L105.887 22.3082C107.301 22.6515 108.355 23.1767 109.048 23.8839C109.742 24.5842 110.088 25.487 110.088 26.5923C110.088 27.4986 109.828 28.3087 109.306 29.0227C108.791 29.7367 108.07 30.2997 107.143 30.7116C106.216 31.1236 105.138 31.3295 103.909 31.3295C102.296 31.3295 100.961 30.9794 99.9034 30.2791C98.8461 29.5788 98.1767 28.5559 97.8952 27.2102L100.202 26.6335C100.422 27.4848 100.837 28.1233 101.448 28.549C102.066 28.9747 102.873 29.1875 103.868 29.1875C105.001 29.1875 105.9 28.9472 106.566 28.4666C107.239 27.9792 107.576 27.3956 107.576 26.7159C107.576 26.1667 107.383 25.7067 106.999 25.3359C106.614 24.9583 106.024 24.6768 105.228 24.4915L102.591 23.8736C101.143 23.5303 100.078 22.9982 99.3988 22.2773C98.726 21.5496 98.3896 20.6399 98.3896 19.5483C98.3896 18.6558 98.6402 17.8662 99.1413 17.1797C99.6494 16.4931 100.339 15.9542 101.211 15.5629C102.09 15.1715 103.086 14.9759 104.198 14.9759C105.763 14.9759 106.992 15.3191 107.885 16.0057C108.784 16.6922 109.422 17.5985 109.8 18.7244ZM120.626 15.1818V17.2415H112.429V15.1818H120.626ZM114.818 11.392H117.248V26.4688C117.248 27.1553 117.348 27.6702 117.547 28.0135C117.753 28.3499 118.014 28.5765 118.33 28.6932C118.652 28.803 118.992 28.858 119.349 28.858C119.617 28.858 119.837 28.8442 120.008 28.8168C120.18 28.7824 120.317 28.755 120.42 28.7344L120.915 30.9176C120.75 30.9794 120.52 31.0412 120.225 31.103C119.929 31.1716 119.555 31.206 119.102 31.206C118.415 31.206 117.743 31.0584 117.084 30.7631C116.431 30.4679 115.889 30.0182 115.456 29.4141C115.031 28.8099 114.818 28.0478 114.818 27.1278V11.392ZM128.937 31.3707C127.935 31.3707 127.025 31.1819 126.208 30.8043C125.391 30.4199 124.742 29.8672 124.261 29.1463C123.781 28.4186 123.541 27.5398 123.541 26.5099C123.541 25.6037 123.719 24.8691 124.076 24.3061C124.433 23.7363 124.91 23.29 125.508 22.9673C126.105 22.6446 126.764 22.4044 127.485 22.2464C128.213 22.0817 128.944 21.9512 129.678 21.8551C130.64 21.7315 131.419 21.6388 132.016 21.5771C132.62 21.5084 133.06 21.3951 133.334 21.2372C133.616 21.0793 133.756 20.8047 133.756 20.4134V20.331C133.756 19.3149 133.478 18.5253 132.922 17.9624C132.373 17.3994 131.539 17.1179 130.42 17.1179C129.26 17.1179 128.35 17.3719 127.691 17.88C127.032 18.388 126.568 18.9304 126.301 19.5071L123.994 18.6832C124.406 17.7221 124.955 16.9737 125.641 16.4382C126.335 15.8958 127.09 15.5182 127.907 15.3054C128.731 15.0857 129.541 14.9759 130.337 14.9759C130.845 14.9759 131.429 15.0376 132.088 15.1612C132.754 15.2779 133.396 15.5217 134.014 15.8924C134.639 16.2631 135.157 16.8227 135.569 17.571C135.981 18.3194 136.187 19.3217 136.187 20.5781V31H133.756V28.858H133.633C133.468 29.2012 133.194 29.5685 132.809 29.9599C132.425 30.3512 131.913 30.6842 131.275 30.9588C130.636 31.2334 129.857 31.3707 128.937 31.3707ZM129.308 29.1875C130.269 29.1875 131.079 28.9987 131.738 28.6211C132.404 28.2435 132.905 27.756 133.242 27.1587C133.585 26.5614 133.756 25.9332 133.756 25.2741V23.0497C133.653 23.1733 133.427 23.2866 133.077 23.3896C132.734 23.4857 132.335 23.5715 131.882 23.647C131.436 23.7157 131 23.7775 130.574 23.8324C130.156 23.8804 129.816 23.9216 129.555 23.956C128.923 24.0384 128.333 24.1722 127.783 24.3576C127.241 24.5361 126.802 24.8073 126.465 25.1712C126.136 25.5282 125.971 26.0156 125.971 26.6335C125.971 27.478 126.283 28.1165 126.908 28.549C127.54 28.9747 128.34 29.1875 129.308 29.1875Z" fill="white" fill-opacity="0.81"/>
<defs>
<linearGradient id="paint0_linear_203_17" x1="24.6225" y1="0" x2="24.6225" y2="35" gradientUnits="userSpaceOnUse">
<stop stop-color="#877EFF"/>
<stop offset="0.461458" stop-color="#685DFF"/>
<stop offset="1" stop-color="#3121FF"/>
</linearGradient>
</defs>
</svg>
